<?xml version="1.0" encoding="utf-8"?>
<!-- Generator: Adobe Illustrator 26.0.2, SVG Export Plug-In . SVG Version: 6.00 Build 0)  -->
<svg version="1.1" id="Layer_1" xmlns="http://www.w3.org/2000/svg" xmlns:xlink="http://www.w3.org/1999/xlink" x="0px" y="0px"
	 viewBox="0 0 967.3 120.6" style="enable-background:new 0 0 967.3 120.6;" xml:space="preserve">
<style type="text/css">
	.st0{fill:#FFFFFF;}
</style>
<g id="Layer_2_00000137100472738147839920000018251101308350921606_">
	<g id="Layer_1-2">
		<path class="st0" d="M77.6,33.2c-2.8,2.6-7.2,9.7-8.9,7.8l-3.6-2.6l-3.6-2.8c-2.5-1.8-5.6-2.6-9.6-2.5c-23.1,1-26.5,24.9-26,38.1
			c0.3,8.9,4.3,15,13.2,16.5l1,0.2l1.2,0.3c0.7,0.2,1.4,0.4,2.2,0.3c8.4,2.6,16.5,0.5,23.9-6.4l1-1c0.3-0.5,0.5-0.8,0.8-1
			c1.3-1.3,3.5-1.3,4.8,0c4.1,3.6,7.8,7.2,11,10.6c2.8,2.6,2.8,5.3,0,8.1c-6.8,6.8-15.5,11.4-26.6,14.4c-1.5,0.5-3.3,0.8-5.3,1.3
			l-5.4,0.7c-21.1,2.3-45-14.8-47.3-41.2c-2-21.6,5.1-39.7,21.3-54.1l1.5-1.3c0.6-0.5,1.1-1.1,1.6-1.6C33.6,7.8,46,5,61,7.6l1.2,0.2
			c0.5,0.1,0.9,0.3,1.3,0.5c4.4,1.9,8.6,4.3,12.4,7.3c3.6,2.6,10.9,7.9,8.9,9.7C82.7,28.2,80.3,30.8,77.6,33.2z"/>
		<path class="st0" d="M143.4,0.6c2.2-0.5,4.4-0.7,6.6-0.5c19.4,1.3,35.9,9.7,43.4,28.4c3.2,7.5,4.8,15.5,5,23.6v7.1
			c0,3,0,5.3-0.2,6.9c-0.4,4.4-1.3,8.8-2.6,13c-7.1,21.4-25.1,35.9-46.2,40.4c-13.4,2.8-31.5-5.6-37.4-16.2
			c-7.1-12.5-10.9-24.6-11-35.6C96.4,37.3,113.1,8.1,143.4,0.6z M127.4,78.6c0.2,1.5,0.5,3,1,4.4l1.3,4.6c1.2,4,3.8,6.1,8.1,6.9
			c15,2.8,33-5.3,35.8-26.9c0.8-6.4,0.2-14.7-2.5-24.7c-2.5-9.6-11.2-22.6-26.5-17.1c-6.1,2.1-10.2,6.1-13.2,12.2
			c-4.7,9.9-6.5,20.9-5.1,31.8C126.5,72.7,126.9,75.7,127.4,78.6L127.4,78.6z"/>
		<path class="st0" d="M245.9,88.4l-4,4.4l-14.7,17.6l-7.2,8.6c-3.2-1.4-6.2-3.3-8.9-5.6l-1.8-1.8l-2-1.7c-1.5-1.3-3-2.5-4-3.3
			c-1.3-1.3-1.5-3.3-0.3-4.8l2.3-3l2-3.1c1.8-2.1,3.3-4.1,4.6-5.8c2.7-3.1,5.9-7,10.1-11.8l5.1-5.6l5.1-5.9l1.2-1.7l0.7-1.2
			c0.5-0.3,0.5-0.7,0.8-1c-10.5-15.2-19.9-31.2-28.2-47.8c2.7-2.6,5.7-5,8.7-7.2c1.5-0.8,3-1.8,4.8-2.8l4.6-3c2.5,0,3.5,1.3,4.9,3.5
			c4.4,6.4,10.1,16.2,18.3,29c0.5,0.9,1.2,1.8,1.8,2.6l0.5,0.7l0.3,0.7c0.5,0.3,0.9,0.8,1.1,1.3c0.3-0.3,0.7-0.3,1.1-0.8l1-1
			c0.8-0.8,1.6-1.2,2-1.7l12.4-13.9l12-13.9l0.5-0.8l0.7-0.5c6.6-4.9,6.6-6.3,12.5-0.3l6.3,6.3c2.1,1.9,3.5,4.4,4,7.1
			c-1.5,3.5-3.6,6.6-6.3,9.3c-1,1-2.3,2.5-4,4l-2.1,1.8l-2.1,2c-3,2.8-6.1,6.4-10.2,10.4l-5.1,5l-4.9,5.3c-0.4,0.6-0.8,1.2-1.1,1.8
			l-0.7,1l-0.8,1l4.5,6.2l4.6,5.9c3.5,4.6,6.6,8.6,8.9,11.9c4.6,6.2,8.6,12.9,11.7,19.9l-1,1l-1.1,0.8c-0.6,0.6-1.3,1.1-2,1.5
			c-3.1,2.2-6.6,4-9.9,5.8c-1.8,0.9-3.7,1.6-5.6,2.1c-3,0.7-4.5,0-5.9-2.8c-1.1-2.1-2.8-4.8-4.5-7.2l-2.3-3.5l-2.6-3.5
			c-3.5-4.5-6.7-9.2-9.4-14.2c-0.2-0.3-0.3-0.8-0.8-1l-0.7-0.5c-0.3-0.2-0.7-0.5-0.8-0.5L245.9,88.4z"/>
		<path class="st0" d="M341,5c-3.8,13.8-10.9,31.5-15.5,39.1l-9.2,1.2c3.6-9.7,7.9-26.9,9.7-38.7L341,5z"/>
		<path class="st0" d="M354.7,91.6l2-2c4.1-4.1,3.8-6.4,5.6-5.8c0.5,0.5,1.2,1,2,1.7l0.7,0.5l0.8,0.8c1.5,1,2.3,2,3.1,2.3
			c4.6,2.8,8.7,4,14.2,2c3.6-1.3,5.8-4.9,5.3-8.7c-0.7-4.3-2.6-7.6-5.9-9.6c-1.6-0.8-3.3-1.8-4.8-2.5c-3.3-1.3-7.7-4.1-12.9-7.9
			c-15.5-11.7-14.4-34.3-3.8-46.3c10.4-12,24.9-14.3,39.9-8.4l1.6,0.7l1.5,0.5c1.1,0.2,2.1,0.6,3.1,1c2.1,1.4,3.8,3.3,5.1,5.4
			c-2.3,4.9-5.1,9.5-8.4,13.8c-3.5,4.4-2.6,4.1-8.2,2.5c-4.3-1.3-9.2-2.1-12.4-0.5c-3.1,1.6-4.4,5.3-3,8.4c0.6,1.8,1.8,3.3,3.5,4.3
			c2.9,1.8,5.9,3.4,9.1,4.6c15.8,5.6,25.5,25.4,23.9,40.9c-1.1,9.7-9.2,19.8-18.1,24.2c-6.9,3.5-10.9,3.5-22.8,3.5
			c-5.1,0-9.9-2.1-14.5-5.1l-3.6-2.6c-1.5-0.7-2.8-1.7-4-2.8l-1.5-1.3c-0.6-0.4-1.2-0.9-1.6-1.5c-1.1-1.2-1.9-2.5-2.5-4
			C350,96.7,352.2,94,354.7,91.6z"/>
		<path class="st0" d="M549.4,55.8c0.7,0.7,1.2,1,1.3,1.2c9.6,7.1,20.4,24.7,7.4,41.2c-8.6,10.7-20.8,15.7-36.3,17.8l-7.3,0.7
			c-2.3,0.3-4.7,0.5-7.1,0.5l-4,0.2c-1.3,0-2.7,0-4-0.2c-2.6,0-5.3-0.4-7.7-1.3l-0.3-4.4l-0.7-4.6l-1.3-25l-1-25.2v-3
			c-0.2-1-0.3-2-0.3-3l-0.8-4.8l-0.8-4.9c-0.4-3.3-0.5-6.6-0.5-9.9c0-2-0.5-4.5-0.8-7.8l-0.5-3.8l-0.5-4c-0.2-3.2-0.7-9.3,5.2-9.3
			c2.1,0,5.1,0.2,9.2,0l4.5-0.2h4.6c14.5,0,28.2,0.7,38.6,13.2s8.9,24.6,2.2,35.8L549.4,55.8z M507.7,31.9c-0.2,2.1-0.3,4.1-0.3,5.4
			c-0.2,4,0.2,7.6,1.8,10.9c5.1,0.5,9.7-0.8,14.7-3.8c5.3-3.3,6.3-9.9,3-15c-0.9-1.1-2.1-1.9-3.5-2.5c-4.8-1.4-9.8-1.7-14.7-1
			L507.7,31.9z M528.8,89.2c2-1,4-2,5.8-3c6.8-3.6,5.1-16.2-4.1-17.8c-7.6-1.3-14.2-1.2-19.5,0.8c-1.2,5.8-1,18.8,0.3,25
			C517.4,93.7,523.4,92,528.8,89.2z"/>
		<path class="st0" d="M637.9,104.9L635,97c-0.9-2.6-2-5.1-3.3-7.6c-12.7-0.8-22.6-1.5-29.2-1.8c-0.1,0.6-0.2,1.1-0.5,1.7l-0.7,2.3
			l-1.5,3.6c-0.8,2.6-2,5.1-2.6,7.1c-0.3,1-0.8,2.2-1.2,3.5l-0.5,2.2l-0.5,1.7c-0.8,3.1-1.7,8.1-3.6,7.2l-6.8-1.5l-1.3-0.5
			c-0.8-0.4-1.7-0.5-2.6-0.5l-1.2-0.3l-1.3-0.3c-0.9-0.3-1.7-0.4-2.6-0.5c-1.7-0.6-3.3-1.7-4.6-3c-1.3-1,0.8-5.4,0.7-5.1
			c0.8-2.8,2-6.1,3.5-10.2l3.5-10.2l6.1-18.3l3.1-9.6l3.3-9.4c2.6-7.6,4.5-14,6.1-19.3c1-3.3,2.6-7.9,4.6-13l2.6-6.8
			c1.5-3.6,2.3-5.9,2.6-6.8l1.3-0.2h1.3c1.2,0,2-0.3,2.6-0.3c1.6,0,3.2,0.2,4.8,0.5h1.3c0.4,0.1,0.9,0.2,1.3,0.3l2.6,0.2
			c4.3,0.3,6.4,1,7.4,5.3l0.3,1.5v1.3c0.1,0.9,0.2,1.8,0.5,2.6l4,9.6c1.5,3.5,2.6,6.6,3.8,9.6c1.8,4.5,4.6,9.1,5.8,15.2
			c0.2,0.8,0.8,2,1.2,3.5l0.5,2.2l0.8,2l2.3,7.7c1.6,5,3.5,9.9,5.9,14.6c4.1,8.1,7.2,16.7,9.2,25.6c1,4.8,1.3,8.2,0.8,10.7
			c-7.6,4-20,8.1-21.4,5.6C641.4,115.3,640.4,111.3,637.9,104.9z M625.6,62.5c-0.8-2.8-2.3-7.1-4.1-12.7l-1.2-3.1l-1.2-3.5
			c-1-2.8-1.6-5.1-2.3-7.1c-4.3,11.2-6.6,20-6.6,27l3.6,0.2c1.2,0,2.5,0.2,3.6,0.7C620.3,64.3,623.1,63.8,625.6,62.5z"/>
		<path class="st0" d="M765.3,115c-0.2,3.5-2.5,5.6-6.1,5.6c-2.1,0-4.1,0-7.4-0.2l-46.2-1.8h0.2l-7.9-0.2c-2.3-0.2-13.2,1-14.2-3
			l-0.7-2.6v-0.5l-0.2-5.1c-0.2-2.6-1.2-5.3-0.8-7.9c0.2-3.1,5.4-10.9,5.9-11.5l0.7-1.5l0.5-1.3c1.8-2.8,3.6-5.4,5.8-8.6l4.9-7.4
			c4.5-6.8,7.9-12,10.2-15.8l3.3-6.1l3.8-5.8c5.4-8.2,3.6-5.1,7.3-12.9h-9.1l-6.1-0.2l-6.1-0.3c-1.9-0.2-3.9-0.2-5.8,0l-2.5,0.2
			h-3.3c-3.9,0.1-7.8,0-11.7-0.5l-0.5-0.2c-2.5-0.8-0.7-24.6,1.6-24.6h-0.5c2.1-0.7,4.6-0.7,8.4-0.7l20.3,0.2l20.4,0.5
			c0.8,0,1.7,0,2.5-0.2l1.3-0.2h1.5l7.9-0.2h7.9c3.6,0,3.6,3.6,3.6,5.4c0.2,0.9,0.3,1.8,0.3,2.6v0.7l0.2,1.3l-0.3-0.6
			c0.7,1.3,0.3,2.5,0.3,3.8v3.1c0,4.1-0.8,6.9-2.3,8.9c-1.1,1.6-2.1,3.4-2.8,5.3l-1.3,3v-0.2c-0.5,1-0.7,2-1.2,3
			c-6.9,13.7-17.8,30-29.3,47c-0.8,1.7-2,3.3-3.1,5.1l-0.8,1.7l-0.8,1.2l20.3,0.7l27.5-0.5l1.3,0.5C763.7,95.2,765.3,90.9,765.3,115
			z"/>
		<path class="st0" d="M843.7,104.9l-3-7.9c-0.9-2.6-2-5.1-3.3-7.6c-12.7-0.8-22.6-1.5-29.2-1.8c-0.1,0.6-0.2,1.1-0.5,1.7l-0.7,2.3
			l-1.5,3.6c-0.8,2.6-2,5.1-2.6,7.1c-0.3,1-0.8,2.2-1.2,3.5l-0.5,2.2l-0.5,1.7c-0.8,3.1-1.7,8.1-3.6,7.2l-6.8-1.5l-1.3-0.5
			c-0.8-0.4-1.7-0.5-2.6-0.5l-1.2-0.3l-1.3-0.3c-0.9-0.3-1.7-0.4-2.6-0.5c-1.7-0.6-3.3-1.7-4.6-3c-1.3-1,0.8-5.4,0.7-5.1
			c0.8-2.8,2-6.1,3.5-10.2l3.5-10.2l6.1-18.3l3.1-9.6l3.3-9.4c2.6-7.6,4.5-14,6.1-19.3c1-3.3,2.6-7.9,4.6-13l2.6-6.8
			c1.5-3.6,2.3-5.9,2.6-6.8l1.3-0.2h1.3c1.2,0,2-0.3,2.6-0.3c1.6,0,3.2,0.2,4.8,0.5h1.3c0.4,0.1,0.9,0.2,1.3,0.3l2.6,0.2
			c4.3,0.3,6.4,1,7.4,5.3l0.3,1.5v1.3c0.1,0.9,0.2,1.8,0.5,2.6l4,9.6c1.5,3.5,2.6,6.6,3.8,9.6c1.8,4.5,4.6,9.1,5.8,15.2
			c0.2,0.8,0.8,2,1.2,3.5l0.5,2.2l0.8,2l2.3,7.8c1.6,5,3.5,9.9,5.9,14.6c4.1,8.1,7.2,16.7,9.2,25.6c1,4.8,1.3,8.2,0.8,10.7
			c-7.6,4-19.9,8.1-21.4,5.6C847.1,115.3,846.1,111.3,843.7,104.9z M831.3,62.5c-0.8-2.8-2.3-7.1-4.1-12.7l-1.2-3.1l-1.2-3.5
			c-1-2.8-1.6-5.1-2.3-7.1c-4.3,11.2-6.6,20-6.6,27l3.6,0.2c1.2,0,2.5,0.2,3.6,0.7C826,64.3,828.8,63.8,831.3,62.5z"/>
		<path class="st0" d="M893.1,1h8.1c13,0,25.2-2,36.3,7.8l0.3,0.5l0.8,0.7c0.5,0.3,1,0.8,1.3,1c11.4,6.3,13.7,24.4,8.7,36.6
			l-1.2,2.8l-1.5,2.5c-1.2,2-2.2,3.8-3.1,5.3c-2.1,3.3-4.9,6.1-8.1,8.4c0,1.4,0.5,2.7,1.5,3.6c0.3,0.6,0.7,1.1,1.2,1.5l0.8,0.5
			l0.5,0.5c4.1,4.1,9.7,8.4,15,15c4.3,5.3,8.7,10.6,13.5,16.7c-0.7,1.8-1.9,3.4-3.3,4.6c-0.7,0.6-1.4,1.3-2,2l-1.2,0.7l-1,1
			l-2.1,1.8l-2.1,2c-1.5,1.2-3.2,2.2-5,2.8c-1.7-0.8-3.5-3-6.8-5.9l-2-1.8l-0.8-0.8l-0.8-1c-1.2-1.3-2.5-2.2-3-3
			c-1.2-1-2.6-2.5-4.5-4.3l-4.6-4.6l-5.1-4.8l-4.8-4.6l-1-1.3l-1.2-1c-0.8-1.2-1.7-1.6-2.1-2.3c-1.5-1.8-3.4-3.2-5.6-4v4.9l0.2,4.6
			c0.2,4.3,0.2,7.4,0.2,9.7c0.1,6.2-0.3,12.5-1.3,18.6c-7.5,2.3-15.4,2.8-23.1,1.7c-1.5-2.8-2.4-5.9-2.6-9.1l-0.5-8.6
			c-0.2-3.1-0.3-5.9-0.3-8.2c0-2.6,0-5.6,0.2-9.1l0.3-8.6l0.2-2.1v-2l0.2-30.8v-31c0-4.3,0.5-6.6,3.1-8.6L893.1,1z M927.2,34.5
			c0-5.1-4.1-8.2-8.4-9.7c-5-1.6-8.2-2.6-12.5-1.6c-0.5,9.5-0.2,19.1,1,28.5C918.8,52,927.2,44.9,927.2,34.5z"/>
	</g>
</g>
</svg>
